<svg width="18" height="18" viewBox="0 0 18 18" fill="none" xmlns="http://www.w3.org/2000/svg">
<path d="M17.7219 3.70898L13.343 6.40695L9.14417 0.806249C9.12728 0.783707 9.10537 0.765409 9.08018 0.752807C9.05499 0.740204 9.02721 0.733643 8.99904 0.733643C8.97087 0.733643 8.94309 0.740204 8.91789 0.752807C8.8927 0.765409 8.87079 0.783707 8.8539 0.806249L4.65731 6.40695L0.276207 3.70898C0.147947 3.63023 -0.0185669 3.73599 0.00168471 3.88675L1.72082 16.9513C1.74558 17.1291 1.89859 17.2663 2.08085 17.2663H15.9217C16.1017 17.2663 16.257 17.1313 16.2795 16.9513L17.9986 3.88675C18.0166 3.73599 17.8524 3.63023 17.7219 3.70898ZM14.8866 15.7272H3.11144L1.90084 6.51496L5.04659 8.45237L9.00016 3.17794L12.9537 8.45237L16.0995 6.51496L14.8866 15.7272Z" fill="#0A0A0A"/>
</svg>
