<svg width="14" height="14" viewBox="0 0 14 14" fill="none" xmlns="http://www.w3.org/2000/svg">
<g clip-path="url(#clip0_7_125)">
<path d="M13.7899 6.88971L7.75238 0.85534L7.34769 0.450652C7.25548 0.359053 7.13079 0.307644 7.00081 0.307644C6.87084 0.307644 6.74615 0.359053 6.65394 0.450652L0.211753 6.88971C0.11727 6.98383 0.0425991 7.09592 -0.00785306 7.21936C-0.0583052 7.34281 -0.0835159 7.47511 -0.081997 7.60846C-0.075747 8.15846 0.382065 8.59753 0.932065 8.59753H1.59613V13.6866H12.4055V8.59753H13.0836C13.3508 8.59753 13.6024 8.49284 13.7914 8.30378C13.8845 8.21098 13.9583 8.10064 14.0084 7.97914C14.0586 7.85765 14.0842 7.72741 14.0836 7.59596C14.0836 7.33034 13.9789 7.07878 13.7899 6.88971ZM7.87581 12.5616H6.12581V9.37409H7.87581V12.5616ZM11.2805 7.47253V12.5616H8.87581V8.99909C8.87581 8.65378 8.59613 8.37409 8.25081 8.37409H5.75081C5.4055 8.37409 5.12581 8.65378 5.12581 8.99909V12.5616H2.72113V7.47253H1.22113L7.00238 1.69596L7.36332 2.0569L12.7821 7.47253H11.2805Z" fill="#6C6C6C"/>
</g>
<defs>
<clipPath id="clip0_7_125">
<rect width="14" height="14" fill="white"/>
</clipPath>
</defs>
</svg>
