<svg width="16" height="16" viewBox="0 0 16 16" fill="none" xmlns="http://www.w3.org/2000/svg">
<path d="M14.3574 11.9294H13.102C13.0163 11.9294 12.936 11.9669 12.8824 12.033C12.7574 12.1848 12.6235 12.3312 12.4824 12.4705C11.9054 13.048 11.222 13.5083 10.4699 13.8258C9.69072 14.1549 8.85324 14.3238 8.0074 14.3223C7.15204 14.3223 6.32347 14.1544 5.5449 13.8258C4.79281 13.5083 4.10938 13.048 3.5324 12.4705C2.95439 11.8949 2.4935 11.2126 2.17526 10.4616C1.8449 9.68298 1.67883 8.8562 1.67883 8.00084C1.67883 7.14548 1.84669 6.3187 2.17526 5.54013C2.49312 4.78834 2.95026 4.11156 3.5324 3.5312C4.11454 2.95084 4.79133 2.4937 5.5449 2.17584C6.32347 1.84727 7.15204 1.67941 8.0074 1.67941C8.86276 1.67941 9.69133 1.84548 10.4699 2.17584C11.2235 2.4937 11.9003 2.95084 12.4824 3.5312C12.6235 3.67227 12.7556 3.8187 12.8824 3.9687C12.936 4.03477 13.0181 4.07227 13.102 4.07227H14.3574C14.4699 4.07227 14.5395 3.94727 14.477 3.85263C13.1074 1.72406 10.711 0.315127 7.98776 0.32227C3.70919 0.332984 0.278829 3.8062 0.321686 8.07941C0.364543 12.2848 3.78954 15.6794 8.0074 15.6794C10.7235 15.6794 13.1092 14.2723 14.477 12.1491C14.5378 12.0544 14.4699 11.9294 14.3574 11.9294ZM15.9449 7.88834L13.411 5.88834C13.3163 5.81334 13.1788 5.8812 13.1788 6.00084V7.35798H7.57169C7.49312 7.35798 7.42883 7.42227 7.42883 7.50084V8.50084C7.42883 8.57941 7.49312 8.6437 7.57169 8.6437H13.1788V10.0008C13.1788 10.1205 13.3181 10.1883 13.411 10.1133L15.9449 8.11334C15.962 8.09998 15.9758 8.0829 15.9853 8.06341C15.9948 8.04392 15.9997 8.02252 15.9997 8.00084C15.9997 7.97916 15.9948 7.95776 15.9853 7.93827C15.9758 7.91878 15.962 7.9017 15.9449 7.88834Z" fill="#6C6C6C"/>
</svg>
