<svg width="12" height="12" viewBox="0 0 12 12" fill="none" xmlns="http://www.w3.org/2000/svg">
<path d="M12 6.00601C12 5.63946 11.9646 5.28493 11.9048 4.9304L10.6162 5.88784C10.6162 5.92289 10.6162 5.97096 10.6162 6.00601C10.6162 7.36605 10.025 8.58388 9.09161 9.42314L10.025 10.4517C11.2317 9.36405 12 7.76766 12 6.00601Z" fill="#FAFAFA"/>
<path d="M10.7468 2.34151C11.0302 2.70806 11.2671 3.10966 11.4675 3.5353L6.00608 7.56635L3.71217 6.12419V4.3986L5.99393 5.82874L10.7468 2.34151Z" fill="#FAFAFA"/>
<path d="M1.38283 6.00601C1.38283 5.92288 1.38283 5.85278 1.39497 5.76965L0.0121478 5.69855C0.0121478 5.79369 0 5.89985 0 5.99399C0 7.64947 0.674204 9.15073 1.76143 10.2384L2.74237 9.25689C1.90316 8.42965 1.38283 7.28292 1.38283 6.00601Z" fill="#FAFAFA"/>
<path d="M5.99394 1.39509C6.07695 1.39509 6.14781 1.39509 6.23082 1.40711L6.30168 0.0240361C6.20652 0.0240361 6.10023 0.0120183 6.00608 0.0120183C4.35094 0.0120183 2.84968 0.686029 1.76143 1.77366L2.74237 2.75513C3.57045 1.91587 4.72854 1.39509 5.99394 1.39509Z" fill="#FAFAFA"/>
<path d="M5.99394 10.6169C5.91092 10.6169 5.84006 10.6169 5.75705 10.6049L5.68619 11.988C5.78135 11.988 5.88764 12 5.98179 12C7.63693 12 9.13921 11.326 10.2264 10.2384L9.2455 9.25689C8.41743 10.1082 7.27047 10.6169 5.99394 10.6169Z" fill="#FAFAFA"/>
<path d="M8.59458 2.1993L9.76482 1.336C8.73631 0.508763 7.42434 0 5.99394 0V1.38307C6.96374 1.39509 7.86166 1.69054 8.59458 2.1993Z" fill="#FAFAFA"/>
<path d="M5.99394 10.6169C4.63439 10.6169 3.41657 10.026 2.57736 9.09164L1.54885 10.026C2.64822 11.2439 4.2325 12 5.99393 12L5.99394 10.6169Z" fill="#FAFAFA"/>
<path d="M2.90839 2.58888L1.97402 1.56034C0.756202 2.65999 0 4.24437 0 6.00601L1.38283 6.00601C1.38283 4.65799 1.97402 3.42914 2.90839 2.58888Z" fill="#FAFAFA"/>
</svg>
