<svg width="8" height="12" viewBox="0 0 8 12" fill="none" xmlns="http://www.w3.org/2000/svg">
<path d="M3.99905 9.53674e-07C3.151 9.53674e-07 2.88452 0.585725 2.66095 1.17053C2.56704 1.41887 0.363246 7.2302 0.296985 7.40464C0.279346 7.45329 0.291265 7.53317 0.368967 7.56208C0.447146 7.59054 1.59218 8.01928 1.65558 8.04223C1.71899 8.06564 1.79001 8.03167 1.81289 7.97062C1.83673 7.91049 2.312 6.64356 2.36539 6.50218H5.63175C5.68323 6.64356 6.16422 7.91324 6.18568 7.97062C6.2076 8.02892 6.27577 8.0684 6.34346 8.04223C6.41116 8.01653 7.56048 7.58779 7.62913 7.56208C7.69491 7.5373 7.72494 7.46523 7.70206 7.40464C7.62102 7.18706 5.4506 1.4689 5.34001 1.17053C5.12454 0.594446 4.849 9.53674e-07 3.99905 9.53674e-07ZM7.87653 10.3984C7.94518 10.3984 8 10.4535 8 10.5205V11.8788C8 11.9458 7.94518 12 7.87653 12H0.124896C0.0548205 12 4.76837e-07 11.9458 4.76837e-07 11.8788V10.5205C4.76837e-07 10.4535 0.0548205 10.3984 0.124896 10.3984H7.87653ZM4.00667 1.89764L5.11071 5.0902H2.88452L3.99237 1.89764H4.00667Z" fill="#FAFAFA"/>
</svg>
